<?xml version="1.0" encoding="utf-8"?>
<!-- Generator: Adobe Illustrator 24.0.1, SVG Export Plug-In . SVG Version: 6.00 Build 0)  -->
<svg version="1.1" id="图层_1" xmlns="http://www.w3.org/2000/svg" xmlns:xlink="http://www.w3.org/1999/xlink" x="0px" y="0px"
	 viewBox="0 0 949 256" style="enable-background:new 0 0 949 256;" xml:space="preserve">
<style type="text/css">
	.st0{fill:none;}
	.st1{opacity:0.81;enable-background:new    ;}
	.st2{fill:#FFECE3;}
	.st3{fill:#5BF499;}
	.st4{fill:#EC7094;}
	.st5{fill:#6C9DFF;}
	.st6{fill:#4C4497;}
</style>
<rect x="243" y="29.9" class="st0" width="688" height="205"/>
<g class="st1">
	<path d="M315.9,180.9c0,1-0.7,2.2-2.1,3.5c-1.3,1.2-2.6,1.8-3.9,1.8c-3.8,0-5.7-4.8-5.7-14.3c0-0.9-0.1-5.7-0.4-14.5
		c-0.3-8.7-0.4-15-0.4-18.8l1.8-47.5c0.1-5.2,1.5-7.8,4.1-7.8c3.9,0,5.9,1.8,5.9,5.5c0-0.3-0.3,4.8-1,15c-0.7,10.4-1,17.9-1,22.5
		c0,3.9,0.1,10.7,0.2,20.3c0.1,9.8,0.2,15.2,0.2,16.2c0,2.5,0.4,6,1.2,10.5C315.5,177.9,315.9,180.3,315.9,180.9z M370.6,104.9
		c0,13.5-10.9,27.3-32.8,41.2c4.7,10.8,9,18,12.9,21.5c1.7,1.4,3.4,2.9,5.1,4.3c2,2,2.9,4,2.9,6.3c0,1.4-0.6,2.7-1.8,3.7
		c-1.2,1.2-2.4,1.8-3.7,1.8c-3.9,0-9.3-5.3-16.2-16c-6.6-10.4-10-17.9-10-22.5c0-2.7,1.2-4.8,3.5-6.3c2.5-1.4,4.8-2.7,7-3.9
		c15.2-10.3,22.9-21.1,22.9-32.4c0-4.9-2-9.3-5.9-13.1c-3.9-3.8-8.7-5.7-14.3-5.7c-1,0-2.4,0.4-4.1,1.2c-1.7,0.7-2.9,1-3.5,1
		c-0.7,0-1.4-0.5-2.1-1.4c-0.9-1-1.4-1.9-1.4-2.5c0-2.1,1.6-3.8,4.7-5.3c2.6-1.4,5.1-2.1,7.6-2.1c9,0,16.1,2.6,21.3,7.8
		C368,87.6,370.6,95.1,370.6,104.9z"/>
	<path d="M467.7,153.7c0,7.3-3.6,14.5-10.7,21.7c-7,7.4-13.9,11.1-20.5,11.1c-7.4,0-14-2-19.7-6.1c-6.9-4.6-10.4-10.9-10.4-18.9
		c0-8.7,2.7-17.1,8-25.2c5.9-9.1,12.8-13.7,20.7-13.7c3.8,0,5.7,1.3,5.7,3.9c0,0.8-0.4,1.5-1.2,2.1c-0.8,0.7-1.4,1-2,1
		c-0.1,0-0.5-0.1-1-0.2c-0.4-0.3-0.7-0.4-0.8-0.4c-4.7,0-9.2,3.8-13.5,11.5c-3.9,7.3-5.9,13.9-5.9,19.7c0,5,2,8.9,5.9,11.9
		c3.5,2.7,7.5,4.1,12.1,4.1c5.9,0,11.3-2.5,16.4-7.6s7.6-10.9,7.6-17.6c0-3.1-0.9-5.8-2.7-8c-2.5-3-5-5.9-7.6-8.8
		c-0.7-0.9-1-2.1-1-3.7c0-1,1-1.6,2.9-1.6c0.9,0,2.5,0.8,4.9,2.5C463.4,137.8,467.7,145.1,467.7,153.7z"/>
	<path d="M566.3,154.3c0,5.5-0.2,11.3-0.6,17.6c-0.3,6.4-0.4,9.4-0.4,9c0,3.8-2.1,5.7-6.4,5.7c-1.4,0-2.7-0.7-3.7-2.1
		c-0.8-1.2-1.2-2.3-1.2-3.3c0,0.1,0.3-2.7,1-8.4c0.7-5.9,1-11.5,1-17c0-15.9-4.6-23.8-13.7-23.8c-5.3,0-10.4,3.2-15,9.6
		c-4.7,6.6-7,12.7-7,18.2c0,1.2,0,4.2,0,9c-0.1,4.6-0.2,7.9-0.2,10c0,4.8-1.6,7.2-4.9,7.2c-2,0-3.6-0.8-4.9-2.5
		c-1.3-1.6-2-3.1-2-4.7l0.6-25.8c0-2.9-0.1-7.3-0.4-13.3c-0.3-6-0.4-9.2-0.4-9.8c0-0.7,0.5-1.5,1.4-2.5c1-1.2,1.8-1.8,2.3-1.8
		c3.4,0,5.5,1.8,6.3,5.5c0.3,1.2,0.4,4.4,0.4,9.8c7.2-12,15.9-18,26.2-18c7.8,0,13.6,3.6,17.4,10.9
		C564.9,139.1,566.3,146,566.3,154.3z"/>
	<path d="M665.3,146.1c0,1.4-0.5,3.1-1.4,4.9c-1,2.2-2.5,3.5-4.3,3.7c2.1,0.8,3.4,2.6,4.1,5.5c0.3,1.3,0.6,4.8,1,10.4
		c0.1,2.9,0.1,7.2-0.2,13.1c-0.3,6.9-0.4,10.2-0.4,9.8c0,22.4-9.9,33.6-29.7,33.6c-4.4,0-8.5-1.3-12.1-3.9c-3.5-2.5-5.3-5.7-5.3-9.6
		c0-2.3,1-3.5,2.9-3.5c0.7,0,2.4,1.4,5.3,4.3c2.7,2.9,6.6,4.3,11.7,4.3c5.6,0,10-2.6,13.1-7.8c2.6-4.4,3.9-9.6,3.9-15.6
		c0-11.8-0.1-18.4-0.2-19.7c-7.6,7.6-16.3,11.3-26.2,11.3c-6.3,0-11.3-2.4-15-7.2c-3.3-4.3-4.9-9.2-4.9-14.8
		c0-7.8,3.1-16.3,9.4-25.6c7-10.8,15.2-16.2,24.4-16.2c4.6,0,9.7,2.6,15.4,7.8C662.5,135.9,665.3,141,665.3,146.1z M658.1,154.7
		c-0.8-2.3-2-6.2-3.7-11.5c-0.8-2-2-4-3.7-6.1c-2.7-3.1-5.3-4.7-7.8-4.7c-6.1,0-12,4.1-17.6,12.3c-5,7.2-7.4,13.4-7.4,18.8
		c0,9,3.7,13.5,11.1,13.5c6.3,0,11.3-2,15.2-5.9c2.2-2.2,4.6-5.9,7-10.9c1.8-3.9,3.3-5.9,4.5-5.9
		C656.7,154.3,657.4,154.4,658.1,154.7z"/>
	<path d="M767.5,154.3c0,8.9-3.1,16.6-9.4,23.2c-5.9,6.1-12.2,9.2-18.9,9.2c-2,0-3.8-0.6-5.7-1.8c-1.8-1.3-2.7-2.8-2.7-4.5
		c0-2.5,1.4-3.7,4.1-3.7c0.7,0,1.6,0.1,2.9,0.4c1.4,0.3,2.5,0.4,3.1,0.4c3,0,6.3-2,10-6.1c3.9-4.6,5.9-9.4,5.9-14.5
		c0-7-1.9-12.8-5.7-17.2c-3.8-4.4-8.3-6.6-13.5-6.6c-10.8,0-16.2,5.2-16.2,15.6c0,2.1-0.1,5.7-0.2,10.7c-0.1,5-0.2,8.5-0.2,10.5
		c0,4.3-2.1,6.4-6.4,6.4c-3.3,0-4.9-2.9-4.9-8.6c0-0.3,0.2-3.9,0.6-10.9s0.6-13.2,0.6-18.4c0-10.7-0.5-23.5-1.4-38.5
		c-0.9-14.7-1.4-22.2-1.4-22.5c0-5.6,1.8-8.4,5.5-8.4c3.5,0,5.3,2.7,5.3,8c0,3.4,0.6,20.2,1.8,50.4c6.1-3.3,12.4-4.9,18.9-4.9
		c7.7,0,14.3,3.3,19.7,9.8C764.7,139.4,767.5,146.6,767.5,154.3z"/>
	<path d="M867.7,153.7c0,7.3-3.6,14.5-10.7,21.7c-7,7.4-13.9,11.1-20.5,11.1c-7.4,0-14-2-19.7-6.1c-6.9-4.6-10.4-10.9-10.4-18.9
		c0-8.7,2.7-17.1,8-25.2c5.9-9.1,12.8-13.7,20.7-13.7c3.8,0,5.7,1.3,5.7,3.9c0,0.8-0.4,1.5-1.2,2.1c-0.8,0.7-1.4,1-2,1
		c-0.1,0-0.5-0.1-1-0.2c-0.4-0.3-0.7-0.4-0.8-0.4c-4.7,0-9.2,3.8-13.5,11.5c-3.9,7.3-5.9,13.9-5.9,19.7c0,5,2,8.9,5.9,11.9
		c3.5,2.7,7.5,4.1,12.1,4.1c5.9,0,11.3-2.5,16.4-7.6s7.6-10.9,7.6-17.6c0-3.1-0.9-5.8-2.7-8c-2.5-3-5-5.9-7.6-8.8
		c-0.7-0.9-1-2.1-1-3.7c0-1,1-1.6,2.9-1.6c0.9,0,2.5,0.8,4.9,2.5C863.4,137.8,867.7,145.1,867.7,153.7z"/>
</g>
<path class="st2" d="M137.5,165.4H165l6.2,19.2l16.9,2.6v9.7c0,0-12.5,6.2-36.3,7.3c-14.8,0.3-29.2-5.1-40.3-15l21.8-3.9
	L137.5,165.4z"/>
<path class="st3" d="M93.8,194.8c-8.8,10.3-10.6,34.6-10.6,34.6h135.5c0,0,2-21.4-9.7-32.8c-6.1-5.2-13.7-8.3-21.7-8.9
	c-9.5,7.6-21.4,11.6-33.6,11.4c-13.9,0.4-27.6-3.3-39.4-10.8C106.8,186.3,98.8,188.9,93.8,194.8L93.8,194.8z"/>
<path class="st2" d="M202.5,94.6c-1.2,0-2.4,0.2-3.5,0.5V76.3h-17.6l-7-7.5l-6.6,7.4l-61.4-0.6v19.5c-5.9-2.8-13-0.4-15.8,5.5
	s-0.4,13,5.5,15.8c3.2,1.5,6.9,1.6,10.1,0.1v6.4c0,0,4.9,44,47.1,44c33.4,0,46.2-41.4,46.2-41.4v-7.7c1.1,0.4,2.3,0.5,3.5,0.5
	c6.6,0,11.9-5.3,11.9-11.9s-5.3-11.9-11.9-11.9L202.5,94.6z"/>
<path class="st4" d="M177.7,130.3c0,5.3,4.3,9.7,9.7,9.7s9.7-4.3,9.7-9.7l0,0c0-5.3-4.3-9.7-9.7-9.7S177.7,124.9,177.7,130.3
	L177.7,130.3z"/>
<path class="st4" d="M106.1,130.3c0,5.3,4.3,9.7,9.7,9.7s9.7-4.3,9.7-9.7l0,0c0-5.3-4.3-9.7-9.7-9.7
	C110.4,120.6,106.1,124.9,106.1,130.3L106.1,130.3z"/>
<path class="st5" d="M94.4,92.2l9.9-1.8l0.5-12.5h61.8l7.5-11.2l8.8,12.3h13.4l4,11.4l8.1,1.8l5.3-20l8.1-0.2
	c0,0-2.6-27.1-19.8-35.2S172.1,35,172.1,35s-30.3-17.8-54.6-7.3S82.3,68.8,82.3,68.8l7.9,4L94.4,92.2z"/>
<path class="st4" d="M150.7,129.1c9.7,0,23.8-5.3,27.3-0.9c3.5,4.4-4.8,19.2-23.1,19.2s-35.2-8.3-30.6-18.3
	C126.3,124.7,150.7,129.1,150.7,129.1z"/>
<path class="st6" d="M169.2,195l-2.3,0.5c-1,0.1-1.7,1-1.6,1.9s1,1.7,1.9,1.6h0.4l2.5-0.6c1-0.2,1.6-1.2,1.4-2.2
	C171.2,195.4,170.2,194.8,169.2,195L169.2,195z M171.7,105.4c-0.6-0.7-1.7-0.9-2.5-0.2l-7,5.7c-0.8,0.6-0.9,1.7-0.2,2.5
	c0.2,0.3,0.6,0.5,0.9,0.6l9,2.3h0.4c1,0.1,1.9-0.6,2-1.5c0.1-1-0.6-1.9-1.5-2l-5.6-1.4l4.3-3.5C172,107.2,172.2,106.2,171.7,105.4z
	 M129.2,114.9c0.2,0.8,0.9,1.3,1.7,1.3h0.4l9-2.3c0.9-0.2,1.5-1.2,1.3-2.2c-0.1-0.4-0.3-0.7-0.6-0.9l-7-5.8
	c-0.8-0.6-1.9-0.5-2.5,0.3s-0.5,1.9,0.3,2.5l4.3,3.5l-5.6,1.4C129.5,113.1,129,114,129.2,114.9L129.2,114.9z M126.5,100.3
	c0.8,0,1.6-0.4,2.1-1.1c1.4-1.5,3.1-2.5,5.1-2.9c1.9-0.6,4-0.6,5.9,0c1.3,0.6,2.9,0,3.5-1.3s0-2.9-1.3-3.5c-3-1.1-6.4-1.2-9.5-0.3
	c-3.2,0.7-6,2.5-8,5c-0.8,1.2-0.5,2.8,0.7,3.7C125.5,100.2,126,100.4,126.5,100.3L126.5,100.3z M163.6,96.3c1.9-0.6,4-0.6,5.9,0
	c2,0.4,3.8,1.5,5.1,3c0.9,1.1,2.6,1.3,3.7,0.4c1.1-0.8,1.3-2.4,0.6-3.5c-4.4-5-11.3-6.8-17.6-4.7c-1.3,0.6-1.9,2.2-1.3,3.5l0,0
	C160.7,96.4,162.3,96.9,163.6,96.3z M177.6,125.6c-2.6-1.4-7-0.7-11.7,0l-4.1,0.6c-3.4,0.5-6.8,0.7-10.3,0.8
	c-3.4-0.1-6.9-0.3-10.3-0.8l-4.1-0.6c-4.6-0.8-9-1.5-11.7,0c-3.1,1.6-4.6,5.1-3.5,8.4c1.9,7.5,13.5,15.5,29.6,15.6
	c16,0,27.6-7.9,29.5-15.6C182.2,130.7,180.7,127.1,177.6,125.6L177.6,125.6z M177.8,133.1c-1.3,5.2-10.6,12.8-26.2,12.9
	c-15.7,0-24.9-7.7-26.2-12.9c-0.6-1.7,0.2-3.7,1.9-4.4c0.7-0.3,1.5-0.4,2.3-0.4c2.4,0.1,4.7,0.4,7,0.9l4.3,0.6
	c3.5,0.5,7,0.7,10.6,0.8c3.5-0.1,7.1-0.3,10.6-0.8l4.2-0.7c3.1-0.9,6.3-1,9.4-0.5C177.5,129.3,178.5,131.3,177.8,133.1L177.8,133.1z
	"/>
<path class="st6" d="M227.1,71.8c-0.3-1.3-7.8-31.2-26.7-40.2c-8.6-4.2-18.6-4.8-27.6-1.5c-4.9-3.5-19.6-11.5-46.3-7
	C86,29.8,76.7,70.4,76.6,71c-0.4,1.9,0.8,3.8,2.7,4.2c0.2,0,0.3,0.1,0.5,0.1l8,0.5c0.7,5.7,1.9,11.4,3.5,16.9
	c-7.6,6.5-8.4,17.9-1.9,25.5c3.1,3.6,7.5,5.8,12.2,6.2c1.9,19.1,14.5,35.5,32.5,42.2l-2.5,12.2c-0.5,2.4-2.5,4.2-4.9,4.5l-16,1.7
	c-15,1.5-26.9,13.2-28.8,28.2l-2.1,16.3c0,1.8,1.3,3.4,3.1,3.6h0.5c1.8,0,3.3-1.3,3.5-3.1l2.1-16.3c1.5-11.7,10.8-20.7,22.5-21.9
	l4-0.4c11,6.3,23.5,9.5,36.2,9.3c2.5,0,4.9,0,7.3-0.3c1-0.1,1.7-0.9,1.6-1.9c-0.1-1-0.9-1.6-1.9-1.6c-2.3,0.2-4.6,0.3-7,0.3
	c-10.3,0.1-20.6-2.1-30-6.4l5.8-0.6c5.5-0.6,10-4.6,11.1-10l2.4-11.6c7.1,1.6,14.4,1.6,21.5,0l2.4,11.6c1.1,5.4,5.6,9.5,11.1,10
	l5.7,0.6c-1.9,0.9-3.8,1.7-5.7,2.4c-1,0.2-1.6,1.1-1.5,2.1c0.2,1,1.1,1.6,2.1,1.5c0.2,0,0.4,0,0.6,0c3.8-1.3,7.4-3,10.8-5.1l4,0.4
	c11.7,1.2,21,10.3,22.5,21.9l2.1,16.3c0.2,1.8,1.7,3.1,3.5,3.1h0.5c1.9-0.3,3.3-2,3-3.9l-2.1-16.3c-1.8-15-13.8-26.6-28.8-28.2
	l-16-1.7c-2.4-0.3-4.4-2.1-4.9-4.5l-2.5-12.4c18-6.7,30.6-23.1,32.5-42.2c9.9-0.9,17.3-9.7,16.4-19.6c-0.4-4.9-2.8-9.3-6.6-12.4
	c0.6-1.7,1.8-5.2,3-9.4c0.8-2.9,1.5-5.6,2-7.7l6.8,0.9c1.9,0.3,3.7-1.1,3.9-3c0.1-0.4,0-0.9-0.1-1.3L227.1,71.8z M92,106.2
	c0-5.5,4-10.1,9.4-11v5.4l-5.4,2.9c-0.9,0.5-1.2,1.5-0.7,2.4s1.5,1.2,2.4,0.7l3.5-2v12.6C95.9,116.3,92,111.7,92,106.2z
	 M194.7,119.4c0,23.8-19.3,43.2-43.2,43.1c-23.8,0-43.1-19.3-43.1-43.1V80.9h58.3c1.2,0,2.4-0.7,3-1.7l4.3-7l4.9,7.3
	c0.7,1,1.8,1.6,2.9,1.5h13L194.7,119.4z M201.8,117.2v-12.6l3.5,2c0.9,0.5,1.9,0.2,2.4-0.7c0.5-0.9,0.2-1.9-0.7-2.4l0,0l-5.4-2.9
	v-5.3c6.1,1,10.2,6.7,9.2,12.7c-0.8,4.7-4.5,8.5-9.2,9.2L201.8,117.2z M214.1,67.9c-1.8-0.2-3.5,1-3.9,2.8c0,0-1.1,5.2-2.5,10.6
	c-0.9,3.2-1.9,6.1-2.5,7.9c-1.1-0.3-2.3-0.6-3.5-0.7V77.4c0-1.9-1.6-3.5-3.5-3.5l0,0h-14.4l-7-10.4c-0.7-1-1.8-1.6-3-1.5
	c-1.2,0-2.3,0.7-2.9,1.7l-6.1,10.2H105c-1.9,0-3.5,1.6-3.5,3.5l0,0v10.9c-1.3,0.1-2.5,0.4-3.7,0.8c-1.6-5.6-2.7-11.3-3.3-17.1
	c-0.2-1.7-1.6-3-3.3-3.1L85,68.4c3.2-9.6,14.1-33.5,42.9-38.4s42.1,6.6,42.2,6.7c1.1,1,2.7,1.3,4.1,0.6c7.5-3.3,16.1-3,23.4,0.7
	c11.7,5.6,18.6,22.1,21.4,30.5L214.1,67.9z"/>
</svg>
